<?xml version="1.0" encoding="utf-8"?>
<svg version="1.1" id="yahman-add-ons" xmlns="http://www.w3.org/2000/svg" xmlns:xlink="http://www.w3.org/1999/xlink" x="0px"
	 y="0px" viewBox="0 0 512 512" style="enable-background:new 0 0 512 512;" xml:space="preserve">
<g id="XMLID_2_">
	<path id="XMLID_3_" d="M58.4,151.5h19.4l-27.4,51.3v30.8H33.2v-30.8L4.8,151.5H25l17,35.7L58.4,151.5z"/>
	<path id="XMLID_5_" d="M111.1,151.5h19.4l29,82h-18.6l-5.4-16.9h-30.2l-5.6,16.9H81.8L111.1,151.5z M109.9,202.5h21l-10.4-32.3
		L109.9,202.5z"/>
	<path id="XMLID_8_" d="M169.8,233.5v-82h17v31.3h31.9v-31.3h17v82h-17v-36.6h-31.9v36.6H169.8z"/>
	<path id="XMLID_10_" d="M306.7,151.5h24.7v82h-16v-55.5c0-1.6,0-3.8,0.1-6.7c0-2.9,0.1-5.1,0.1-6.7l-15.5,68.9h-16.7l-15.4-68.9
		c0,1.6,0,3.8,0.1,6.7c0,2.9,0.1,5.1,0.1,6.7v55.5h-16v-82h24.9l14.9,64.5L306.7,151.5z"/>
	<path id="XMLID_12_" d="M370.7,151.5h19.4l29,82h-18.6l-5.4-16.9h-30.2l-5.6,16.9h-17.9L370.7,151.5z M369.5,202.5h21l-10.4-32.3
		L369.5,202.5z"/>
	<path id="XMLID_15_" d="M429.3,151.5h18l32.6,57.2v-57.2h16v82h-17.1l-33.4-58.2v58.2h-16V151.5z"/>
	<path id="XMLID_17_" d="M54.1,285.5h19.4l29,82H83.9l-5.4-16.9H48.3l-5.6,16.9H24.8L54.1,285.5z M52.9,336.5h21l-10.4-32.3
		L52.9,336.5z"/>
	<path id="XMLID_20_" d="M143.8,307.8c2.9,1.6,5.2,3.9,7,6.7v-28.9h16.1v81.9h-15.4v-8.4c-2.3,3.6-4.8,6.2-7.7,7.8
		s-6.5,2.4-10.8,2.4c-7.1,0-13.1-2.9-17.9-8.6c-4.8-5.7-7.3-13.1-7.3-22.1c0-10.4,2.4-18.5,7.2-24.4c4.8-5.9,11.1-8.9,19.1-8.9
		C137.7,305.4,141,306.2,143.8,307.8z M147.7,351.1c2.3-3.3,3.5-7.7,3.5-13c0-7.4-1.9-12.7-5.6-15.9c-2.3-1.9-5-2.9-8-2.9
		c-4.6,0-8,1.8-10.2,5.3s-3.3,7.9-3.3,13.1c0,5.6,1.1,10.1,3.3,13.4c2.2,3.4,5.6,5,10,5C142,356.1,145.4,354.4,147.7,351.1z"/>
	<path id="XMLID_23_" d="M213.4,307.8c2.9,1.6,5.2,3.9,7,6.7v-28.9h16.1v81.9h-15.4v-8.4c-2.3,3.6-4.8,6.2-7.7,7.8
		s-6.5,2.4-10.8,2.4c-7.1,0-13.1-2.9-17.9-8.6c-4.8-5.7-7.3-13.1-7.3-22.1c0-10.4,2.4-18.5,7.2-24.4c4.8-5.9,11.1-8.9,19.1-8.9
		C207.3,305.4,210.6,306.2,213.4,307.8z M217.3,351.1c2.3-3.3,3.5-7.7,3.5-13c0-7.4-1.9-12.7-5.6-15.9c-2.3-1.9-5-2.9-8-2.9
		c-4.6,0-8,1.8-10.2,5.3s-3.3,7.9-3.3,13.1c0,5.6,1.1,10.1,3.3,13.4c2.2,3.4,5.6,5,10,5C211.6,356.1,215,354.4,217.3,351.1z"/>
	<path id="XMLID_26_" d="M246.1,328.2h31.1v15h-31.1V328.2z"/>
	<path id="XMLID_28_" d="M339.5,360.1c-5.1,6.3-12.9,9.5-23.3,9.5s-18.2-3.2-23.3-9.5s-7.7-13.9-7.7-22.8c0-8.8,2.6-16.3,7.7-22.7
		c5.1-6.4,12.9-9.6,23.3-9.6s18.2,3.2,23.3,9.6c5.1,6.4,7.7,14,7.7,22.7C347.2,346.2,344.6,353.8,339.5,360.1z M326.8,351.4
		c2.5-3.3,3.7-8,3.7-14.1s-1.2-10.8-3.7-14c-2.5-3.3-6-4.9-10.7-4.9s-8.2,1.6-10.7,4.9c-2.5,3.3-3.8,8-3.8,14s1.3,10.8,3.8,14.1
		s6.1,4.9,10.7,4.9S324.3,354.7,326.8,351.4z"/>
	<path id="XMLID_31_" d="M407.4,310.4c4,3.3,6,8.7,6,16.3v40.9h-16.3v-36.9c0-3.2-0.4-5.6-1.3-7.3c-1.5-3.1-4.5-4.7-8.8-4.7
		c-5.3,0-9,2.3-11,6.8c-1,2.4-1.5,5.5-1.5,9.2v32.8h-15.9V307H374v8.9c2-3.1,4-5.4,5.8-6.7c3.3-2.4,7.4-3.7,12.4-3.7
		C398.4,305.4,403.5,307.1,407.4,310.4z"/>
	<path id="XMLID_33_" d="M440.4,348.2c0.3,2.8,1.1,4.8,2.2,6c2,2.1,5.6,3.2,11,3.2c3.1,0,5.6-0.5,7.5-1.4c1.8-0.9,2.8-2.3,2.8-4.2
		c0-1.8-0.7-3.1-2.2-4.1c-1.5-0.9-7-2.5-16.6-4.8c-6.9-1.7-11.8-3.8-14.6-6.4c-2.8-2.5-4.2-6.2-4.2-10.9c0-5.6,2.2-10.4,6.6-14.4
		s10.6-6,18.6-6c7.6,0,13.8,1.5,18.5,4.5s7.5,8.2,8.2,15.7h-15.9c-0.2-2-0.8-3.7-1.7-4.8c-1.8-2.2-4.7-3.2-8.9-3.2
		c-3.5,0-5.9,0.5-7.4,1.6c-1.5,1.1-2.2,2.3-2.2,3.8c0,1.8,0.8,3.1,2.3,4c1.6,0.9,7.1,2.3,16.6,4.4c6.3,1.5,11.1,3.7,14.2,6.7
		c3.1,3,4.7,6.8,4.7,11.4c0,6-2.2,10.9-6.7,14.7c-4.5,3.8-11.4,5.7-20.8,5.7c-9.6,0-16.6-2-21.2-6c-4.6-4-6.8-9.2-6.8-15.4H440.4z"
		/>
</g>
</svg>
